PathFileType	4	(X/Y/Z)	C:/Users/opensim2020/Desktop/walking_exp_matlab/subject06_walking18_straight_04.trc																																																																																																																																											
DataRate	CameraRate	NumFrames	NumMarkers	Units	OrigDataRate	OrigDataStartFrame	OrigNumFrames																																																																																																																																							
100	100	4	47	mm	100	4572	409																																																																																																																																							
Frame#	Time	LFHD			RFHD			LBHD			RBHD			C7			T10			CLAV			STRN			RBAK			LSHO			LUPA			LELB			LFRM			LWRA			LWRB			LFIN			RSHO			RUPA			RELB			RFRM			RWRA			RWRB			RFIN			LASI			RASI			LPSI			RPSI			LTHI			LKNE			LTIB			LANK			LHEE			LTOE			RTHI			RKNE			RTIB			RANK			RHEE			RTOE			*39			*40			*41			*42			*43			*44			*45			*46		
		X1	Y1	Z1	X2	Y2	Z2	X3	Y3	Z3	X4	Y4	Z4	X5	Y5	Z5	X6	Y6	Z6	X7	Y7	Z7	X8	Y8	Z8	X9	Y9	Z9	X10	Y10	Z10	X11	Y11	Z11	X12	Y12	Z12	X13	Y13	Z13	X14	Y14	Z14	X15	Y15	Z15	X16	Y16	Z16	X17	Y17	Z17	X18	Y18	Z18	X19	Y19	Z19	X20	Y20	Z20	X21	Y21	Z21	X22	Y22	Z22	X23	Y23	Z23	X24	Y24	Z24	X25	Y25	Z25	X26	Y26	Z26	X27	Y27	Z27	X28	Y28	Z28	X29	Y29	Z29	X30	Y30	Z30	X31	Y31	Z31	X32	Y32	Z32	X33	Y33	Z33	X34	Y34	Z34	X35	Y35	Z35	X36	Y36	Z36	X37	Y37	Z37	X38	Y38	Z38	X39	Y39	Z39	X40	Y40	Z40	X41	Y41	Z41	X42	Y42	Z42	X43	Y43	Z43	X44	Y44	Z44	X45	Y45	Z45	X46	Y46	Z46	X47	Y47	Z47
																																																																																																																																														
52	0.51	-808.65771	1661.86255	883.70917	-801.25452	1660.00085	1015.63904	-938.65521	1600.83789	894.19916	-929.50061	1604.04492	1023.37885	-928.11176	1450.01306	955.88928	-955.60938	1122.1311	977.4906	-816.85657	1376.10315	960.17419	-774.15765	1200.29797	964.77087	-997.16138	1283.54858	1044.83118	-869.46246	1400.32251	796.55548	-885.49146	1197.90552	729.43359	-898.90009	1086.16101	719.20355	-875.79974	937.49481	696.46576	-810.284	824.83502	734.69495	-873.85535	818.57202	700.79431	-829.87671	737.85614	698.85254	-861.17841	1414.62231	1119.07483	-893.59381	1220.43054	1217.24121	-883.28558	1098.91052	1232.05286	-855.04669	982.58691	1250.37537	-778.14117	852.71631	1217.63757	-831.24011	846.96643	1259.21265	-785.43274	775.86237	1259.62012	-770.45276	963.19482	883.43951	-788.15106	968.47656	1101.41589	-930.09375	992.19586	899.86786	-936.79352	995.0108	1067.55725	-816.67157	651.90088	814.49628	-798.55695	490.6738	835.84949	-795.57275	234.35233	841.03845	-770.68451	63.63546	882.52173	-807.06244	47.86631	929.96094	-624.30664	40.70902	886.48944	-870.42871	628.42792	1150.57996	-878.46747	501.1813	1132.79663	-1053.07446	298.24496	1118.41284	-1172.41907	156.15512	1074.55444	-1215.34863	159.95012	1027.68323	-1077.4718	35.80466	1076.93701	-907.64166	1699.07813	945.64545	NaN	NaN	NaN	NaN	NaN	NaN	NaN	NaN	NaN	NaN	NaN	NaN	NaN	NaN	NaN	NaN	NaN	NaN	NaN	NaN	NaN
53	0.52	-803.11774	1662.06262	881.70874	-795.88605	1660.40417	1013.71082	-933.06555	1600.87122	892.12939	-924.00806	1604.17065	1021.40375	-922.37683	1450.19373	953.98071	-949.97931	1122.30359	975.51105	-811.04767	1376.34985	958.50464	-768.4201	1200.46387	963.20941	-991.57953	1283.71838	1042.72339	-863.4046	1400.58105	794.76068	-878.74084	1198.14587	727.4137	-891.61163	1086.35522	717.02551	-867.38794	937.92688	693.9646	-801.1864	825.77887	732.80188	-864.41797	818.87592	698.80969	-819.93744	738.59094	696.9176	-855.83856	1414.9093	1117.28369	-888.20734	1220.73999	1215.57642	-877.90497	1099.23743	1230.48999	-849.42957	982.98596	1248.79187	-772.23553	853.34576	1215.92126	-825.28705	847.5094	1257.68872	-779.29883	776.55524	1258.25366	-764.52991	963.24396	882.09326	-783.31927	968.59113	1100.04333	-924.33661	992.4295	898.25519	-931.69299	994.96985	1065.9364	-811.10443	652.3678	813.84497	-794.61084	490.74786	834.85504	-793.46002	234.25301	840.61462	-770.11493	63.60172	882.67627	-806.74811	48.0046	929.97375	-623.88538	40.12596	887.04773	-861.86316	628.30365	1150.45679	-867.40649	500.82224	1133.41882	-1044.23254	301.12662	1117.96802	-1165.83398	161.37009	1073.505	-1208.58118	167.15689	1026.8114	-1075.73889	37.34135	1076.5946	-902.22687	1699.1709	943.55414	NaN	NaN	NaN	NaN	NaN	NaN	NaN	NaN	NaN	NaN	NaN	NaN	NaN	NaN	NaN	NaN	NaN	NaN	NaN	NaN	NaN
54	0.53	-797.55243	1662.23193	879.83649	-790.54504	1660.67383	1011.86658	-927.44745	1600.76611	890.19812	-918.62964	1604.25	1019.46533	-916.65204	1450.39966	952.1062	-944.51337	1122.45496	973.66364	-805.44049	1376.4729	956.84644	-762.86761	1200.49219	961.71973	-986.23639	1283.88721	1040.64807	-857.30011	1400.67932	793.00616	-871.94244	1198.2251	725.37854	-884.28162	1086.38159	714.79742	-858.75134	938.03235	692.14746	-791.72046	826.59467	730.64948	-855.07788	819.11365	696.55359	-809.81555	739.24219	694.87195	-850.44714	1414.97473	1115.55591	-883.00287	1220.87964	1213.90234	-872.60095	1099.40234	1228.96008	-843.79449	983.26648	1247.30518	-766.32361	853.8335	1214.29163	-819.13623	847.73541	1256.04883	-772.95612	777.06171	1256.65759	-758.59198	963.34564	880.97443	-778.22528	969.11731	1098.93103	-918.91876	992.69562	896.77838	-926.77051	994.80206	1064.40857	-805.78772	652.77307	813.04791	-790.72418	490.83511	833.84875	-791.69684	234.27625	840.04901	-769.71857	63.52477	882.68518	-806.35992	47.94488	929.82715	-623.58533	39.64308	887.45386	-853.09747	628.13177	1150.32068	-856.1731	500.51456	1133.96045	-1034.65332	303.97778	1117.66565	-1159.22205	167.31912	1072.98145	-1201.09607	174.27719	1025.86572	-1073.57751	39.09756	1076.38538	-896.88123	1699.17444	941.50854	NaN	NaN	NaN	NaN	NaN	NaN	NaN	NaN	NaN	NaN	NaN	NaN	NaN	NaN	NaN	NaN	NaN	NaN	NaN	NaN	NaN
55	0.54	-792.12561	1662.33862	878.08337	-785.18903	1660.92761	1010.08728	-921.85187	1600.62219	888.28839	-913.15302	1604.22974	1017.56116	-910.96722	1450.60168	950.2276	-939.14301	1122.5509	971.87616	-799.80719	1376.52502	955.30487	-757.49017	1200.45862	960.31512	-981.0437	1284.01855	1038.52625	-851.159	1400.69128	791.22046	-865.05487	1198.18591	723.35742	-876.80157	1086.29272	712.54279	-850.2337	938.33228	689.60803	-782.52563	827.211	728.69409	-845.54645	819.28461	694.36462	-799.63586	739.7442	692.88635	-845.18854	1414.97668	1113.94055	-878.01178	1220.8468	1212.19397	-867.47858	1099.46606	1227.48059	-838.31268	983.43701	1245.80444	-760.38983	854.3009	1212.82593	-813.18109	848.14899	1254.73291	-766.63434	777.62366	1255.32861	-752.8501	963.45856	879.92615	-773.56061	969.26782	1097.90063	-913.3764	992.8382	895.31671	-922.12537	994.50824	1062.96997	-800.6745	653.19385	812.20209	-787.073	490.94089	832.77576	-790.1839	234.29207	839.46344	-769.37354	63.48388	882.60797	-806.12158	47.92944	929.62323	-623.30981	39.24124	887.85773	-844.29108	627.92651	1150.1405	-844.5816	500.19467	1134.43127	-1024.28125	306.49118	1117.45935	-1151.41101	172.81534	1072.15942	-1192.93958	181.42793	1025.01477	-1070.72046	41.19212	1075.97131	-891.54846	1699.10327	939.52795	NaN	NaN	NaN	NaN	NaN	NaN	NaN	NaN	NaN	NaN	NaN	NaN	NaN	NaN	NaN	NaN	NaN	NaN	NaN	NaN	NaN
